<mxfile host="app.diagrams.net" modified="2023-12-19T12:25:57.098Z" agent="Mozilla/5.0 (Windows NT 10.0; Win64; x64) AppleWebKit/537.36 (KHTML, like Gecko) Chrome/120.0.0.0 Safari/537.36" etag="xkkcJW0989033C4hFMcR" version="22.1.11" type="device">
  <diagram name="Page-1" id="QSxSEcef5AFu9INZKdUs">
    <mxGraphModel dx="880" dy="468" grid="1" gridSize="10" guides="1" tooltips="1" connect="1" arrows="1" fold="1" page="1" pageScale="1" pageWidth="850" pageHeight="1100" math="0" shadow="0">
      <root>
        <mxCell id="0" />
        <mxCell id="1" parent="0" />
        <mxCell id="7eBVI3LawO5j0G0yM6X--9" value="" style="rounded=0;whiteSpace=wrap;html=1;" parent="1" vertex="1">
          <mxGeometry x="90" y="40" width="730" height="1060" as="geometry" />
        </mxCell>
        <mxCell id="lfvt54emDJ42RaypE45g-5" value="" style="edgeStyle=orthogonalEdgeStyle;rounded=0;orthogonalLoop=1;jettySize=auto;html=1;" parent="1" source="lfvt54emDJ42RaypE45g-1" target="lfvt54emDJ42RaypE45g-2" edge="1">
          <mxGeometry relative="1" as="geometry">
            <Array as="points">
              <mxPoint x="425" y="160" />
              <mxPoint x="425" y="160" />
            </Array>
          </mxGeometry>
        </mxCell>
        <mxCell id="lfvt54emDJ42RaypE45g-1" value="&lt;font style=&quot;font-size: 15px;&quot; face=&quot;Times New Roman&quot;&gt;Start&lt;/font&gt;" style="ellipse;whiteSpace=wrap;html=1;align=center;" parent="1" vertex="1">
          <mxGeometry x="360" y="50" width="130" height="80" as="geometry" />
        </mxCell>
        <mxCell id="lfvt54emDJ42RaypE45g-6" value="" style="edgeStyle=orthogonalEdgeStyle;rounded=0;orthogonalLoop=1;jettySize=auto;html=1;" parent="1" source="lfvt54emDJ42RaypE45g-2" target="lfvt54emDJ42RaypE45g-3" edge="1">
          <mxGeometry relative="1" as="geometry" />
        </mxCell>
        <mxCell id="lfvt54emDJ42RaypE45g-2" value="&lt;div style=&quot;border-color: var(--border-color); font-size: 15px;&quot;&gt;&lt;font face=&quot;Times New Roman&quot; style=&quot;font-size: 15px;&quot;&gt;&lt;font style=&quot;font-size: 15px;&quot;&gt;Input request body&amp;nbsp;&lt;/font&gt;&lt;font style=&quot;font-size: 15px;&quot;&gt;&amp;nbsp;&lt;/font&gt;&lt;/font&gt;&lt;/div&gt;&lt;div style=&quot;border-color: var(--border-color); font-size: 15px;&quot;&gt;&lt;font style=&quot;font-size: 15px;&quot;&gt;&lt;font face=&quot;GleDSat0amGLeKpfn_ed&quot; style=&quot;font-size: 15px;&quot;&gt;&lt;font style=&quot;background-color: initial; font-size: 15px;&quot;&gt;(EmpId, FlowName)&lt;/font&gt;&lt;font style=&quot;background-color: initial; font-size: 15px;&quot;&gt;&amp;nbsp;&lt;/font&gt;&lt;/font&gt;&lt;font style=&quot;font-size: 16px; font-family: QDFqMd1gEKhZacpr5L3v; background-color: initial;&quot;&gt;&amp;nbsp;&lt;/font&gt;&lt;/font&gt;&lt;/div&gt;" style="shape=parallelogram;perimeter=parallelogramPerimeter;whiteSpace=wrap;html=1;fixedSize=1;align=center;" parent="1" vertex="1">
          <mxGeometry x="335" y="160" width="170" height="70" as="geometry" />
        </mxCell>
        <mxCell id="lfvt54emDJ42RaypE45g-13" value="" style="edgeStyle=orthogonalEdgeStyle;rounded=0;orthogonalLoop=1;jettySize=auto;html=1;" parent="1" source="lfvt54emDJ42RaypE45g-3" edge="1">
          <mxGeometry relative="1" as="geometry">
            <mxPoint x="420" y="370" as="targetPoint" />
          </mxGeometry>
        </mxCell>
        <mxCell id="lfvt54emDJ42RaypE45g-18" style="edgeStyle=orthogonalEdgeStyle;rounded=0;orthogonalLoop=1;jettySize=auto;html=1;entryX=0;entryY=0.5;entryDx=0;entryDy=0;" parent="1" source="lfvt54emDJ42RaypE45g-3" target="lfvt54emDJ42RaypE45g-53" edge="1">
          <mxGeometry relative="1" as="geometry">
            <mxPoint x="610" y="295" as="targetPoint" />
          </mxGeometry>
        </mxCell>
        <mxCell id="lfvt54emDJ42RaypE45g-3" value="&lt;font style=&quot;font-size: 15px;&quot; face=&quot;Times New Roman&quot;&gt;Valid&lt;br&gt;request body&lt;/font&gt;" style="rhombus;whiteSpace=wrap;html=1;" parent="1" vertex="1">
          <mxGeometry x="345" y="250" width="150" height="90" as="geometry" />
        </mxCell>
        <mxCell id="ktdjPjqdR2QkIswQw86U-6" style="edgeStyle=orthogonalEdgeStyle;rounded=0;orthogonalLoop=1;jettySize=auto;html=1;entryX=0;entryY=0.5;entryDx=0;entryDy=0;" parent="1" source="lfvt54emDJ42RaypE45g-16" target="lfvt54emDJ42RaypE45g-19" edge="1">
          <mxGeometry relative="1" as="geometry" />
        </mxCell>
        <mxCell id="ktdjPjqdR2QkIswQw86U-15" value="" style="edgeStyle=orthogonalEdgeStyle;rounded=0;orthogonalLoop=1;jettySize=auto;html=1;" parent="1" source="lfvt54emDJ42RaypE45g-16" target="ktdjPjqdR2QkIswQw86U-1" edge="1">
          <mxGeometry relative="1" as="geometry" />
        </mxCell>
        <mxCell id="lfvt54emDJ42RaypE45g-16" value="&lt;font face=&quot;Times New Roman&quot; style=&quot;font-size: 15px;&quot;&gt;&amp;nbsp;Flow name&lt;br&gt;exist&lt;/font&gt;" style="rhombus;whiteSpace=wrap;html=1;" parent="1" vertex="1">
          <mxGeometry x="350" y="370" width="140" height="100" as="geometry" />
        </mxCell>
        <mxCell id="lfvt54emDJ42RaypE45g-19" value="&lt;font face=&quot;Times New Roman&quot; style=&quot;font-size: 15px;&quot;&gt;Return&lt;/font&gt;" style="rounded=0;whiteSpace=wrap;html=1;" parent="1" vertex="1">
          <mxGeometry x="610" y="395" width="120" height="50" as="geometry" />
        </mxCell>
        <mxCell id="lfvt54emDJ42RaypE45g-31" value="No" style="text;html=1;align=center;verticalAlign=middle;resizable=0;points=[];autosize=1;strokeColor=none;fillColor=none;" parent="1" vertex="1">
          <mxGeometry x="250" y="500" width="40" height="30" as="geometry" />
        </mxCell>
        <mxCell id="lfvt54emDJ42RaypE45g-32" value="Yes" style="text;html=1;align=center;verticalAlign=middle;resizable=0;points=[];autosize=1;strokeColor=none;fillColor=none;" parent="1" vertex="1">
          <mxGeometry x="370" y="470" width="40" height="30" as="geometry" />
        </mxCell>
        <mxCell id="lfvt54emDJ42RaypE45g-33" value="No" style="text;html=1;align=center;verticalAlign=middle;resizable=0;points=[];autosize=1;strokeColor=none;fillColor=none;" parent="1" vertex="1">
          <mxGeometry x="525" y="270" width="40" height="30" as="geometry" />
        </mxCell>
        <mxCell id="lfvt54emDJ42RaypE45g-34" value="Yes" style="text;html=1;align=center;verticalAlign=middle;resizable=0;points=[];autosize=1;strokeColor=none;fillColor=none;" parent="1" vertex="1">
          <mxGeometry x="380" y="340" width="40" height="30" as="geometry" />
        </mxCell>
        <mxCell id="Py34A5tgBrLusEjh5_gq-9" value="" style="edgeStyle=orthogonalEdgeStyle;rounded=0;orthogonalLoop=1;jettySize=auto;html=1;" parent="1" source="lfvt54emDJ42RaypE45g-38" target="Py34A5tgBrLusEjh5_gq-8" edge="1">
          <mxGeometry relative="1" as="geometry" />
        </mxCell>
        <mxCell id="lfvt54emDJ42RaypE45g-38" value="&lt;font face=&quot;Times New Roman&quot;&gt;&lt;span style=&quot;font-size: 15px;&quot;&gt;Preparing&amp;nbsp; the response body&lt;/span&gt;&lt;/font&gt;" style="rounded=0;whiteSpace=wrap;html=1;" parent="1" vertex="1">
          <mxGeometry x="340" y="840" width="180" height="60" as="geometry" />
        </mxCell>
        <mxCell id="lfvt54emDJ42RaypE45g-43" value="&lt;font face=&quot;Times New Roman&quot;&gt;&lt;span style=&quot;font-size: 15px;&quot;&gt;End&lt;/span&gt;&lt;/font&gt;" style="ellipse;whiteSpace=wrap;html=1;align=center;" parent="1" vertex="1">
          <mxGeometry x="365" y="1010" width="130" height="80" as="geometry" />
        </mxCell>
        <mxCell id="lfvt54emDJ42RaypE45g-47" value="" style="endArrow=classic;html=1;rounded=0;entryX=1;entryY=0.5;entryDx=0;entryDy=0;exitX=1;exitY=0.5;exitDx=0;exitDy=0;" parent="1" source="lfvt54emDJ42RaypE45g-53" target="lfvt54emDJ42RaypE45g-43" edge="1">
          <mxGeometry width="50" height="50" relative="1" as="geometry">
            <mxPoint x="730" y="295" as="sourcePoint" />
            <mxPoint x="540" y="980" as="targetPoint" />
            <Array as="points">
              <mxPoint x="790" y="295" />
              <mxPoint x="790" y="780" />
              <mxPoint x="790" y="1050" />
            </Array>
          </mxGeometry>
        </mxCell>
        <mxCell id="lfvt54emDJ42RaypE45g-53" value="&lt;font face=&quot;Times New Roman&quot; style=&quot;font-size: 15px;&quot;&gt;Return&lt;/font&gt;" style="rounded=0;whiteSpace=wrap;html=1;" parent="1" vertex="1">
          <mxGeometry x="610" y="270" width="120" height="50" as="geometry" />
        </mxCell>
        <mxCell id="Py34A5tgBrLusEjh5_gq-7" value="" style="edgeStyle=orthogonalEdgeStyle;rounded=0;orthogonalLoop=1;jettySize=auto;html=1;" parent="1" source="Py34A5tgBrLusEjh5_gq-3" target="Py34A5tgBrLusEjh5_gq-2" edge="1">
          <mxGeometry relative="1" as="geometry" />
        </mxCell>
        <mxCell id="ktdjPjqdR2QkIswQw86U-19" style="edgeStyle=orthogonalEdgeStyle;rounded=0;orthogonalLoop=1;jettySize=auto;html=1;entryX=0;entryY=0.5;entryDx=0;entryDy=0;" parent="1" source="Py34A5tgBrLusEjh5_gq-3" target="ktdjPjqdR2QkIswQw86U-11" edge="1">
          <mxGeometry relative="1" as="geometry" />
        </mxCell>
        <mxCell id="Py34A5tgBrLusEjh5_gq-3" value="&lt;font face=&quot;Times New Roman&quot; style=&quot;font-size: 15px;&quot;&gt;DataBase&lt;/font&gt;" style="shape=cylinder3;whiteSpace=wrap;html=1;boundedLbl=1;backgroundOutline=1;size=15;" parent="1" vertex="1">
          <mxGeometry x="380" y="615" width="110" height="110" as="geometry" />
        </mxCell>
        <mxCell id="Py34A5tgBrLusEjh5_gq-10" value="" style="edgeStyle=orthogonalEdgeStyle;rounded=0;orthogonalLoop=1;jettySize=auto;html=1;" parent="1" source="Py34A5tgBrLusEjh5_gq-8" target="lfvt54emDJ42RaypE45g-43" edge="1">
          <mxGeometry relative="1" as="geometry" />
        </mxCell>
        <mxCell id="Py34A5tgBrLusEjh5_gq-8" value="&lt;font face=&quot;Times New Roman&quot; style=&quot;font-size: 15px;&quot;&gt;Return the response body&lt;/font&gt;" style="rounded=0;whiteSpace=wrap;html=1;" parent="1" vertex="1">
          <mxGeometry x="370" y="940" width="120" height="50" as="geometry" />
        </mxCell>
        <mxCell id="ktdjPjqdR2QkIswQw86U-16" style="edgeStyle=orthogonalEdgeStyle;rounded=0;orthogonalLoop=1;jettySize=auto;html=1;entryX=0.5;entryY=0;entryDx=0;entryDy=0;" parent="1" source="ktdjPjqdR2QkIswQw86U-1" target="Py34A5tgBrLusEjh5_gq-2" edge="1">
          <mxGeometry relative="1" as="geometry" />
        </mxCell>
        <mxCell id="ktdjPjqdR2QkIswQw86U-1" value="&lt;font style=&quot;font-size: 15px;&quot; face=&quot;Times New Roman&quot;&gt;Status&amp;nbsp;&lt;br&gt;in request body&lt;br&gt;&lt;/font&gt;" style="rhombus;whiteSpace=wrap;html=1;" parent="1" vertex="1">
          <mxGeometry x="342.5" y="500" width="155" height="80" as="geometry" />
        </mxCell>
        <mxCell id="ktdjPjqdR2QkIswQw86U-13" style="edgeStyle=orthogonalEdgeStyle;rounded=0;orthogonalLoop=1;jettySize=auto;html=1;entryX=0.5;entryY=0;entryDx=0;entryDy=0;exitX=1;exitY=0.5;exitDx=0;exitDy=0;" parent="1" source="ktdjPjqdR2QkIswQw86U-1" target="ktdjPjqdR2QkIswQw86U-11" edge="1">
          <mxGeometry relative="1" as="geometry">
            <mxPoint x="570" y="540" as="sourcePoint" />
          </mxGeometry>
        </mxCell>
        <mxCell id="ktdjPjqdR2QkIswQw86U-17" value="" style="edgeStyle=orthogonalEdgeStyle;rounded=0;orthogonalLoop=1;jettySize=auto;html=1;" parent="1" source="Py34A5tgBrLusEjh5_gq-2" target="Py34A5tgBrLusEjh5_gq-3" edge="1">
          <mxGeometry relative="1" as="geometry" />
        </mxCell>
        <mxCell id="Py34A5tgBrLusEjh5_gq-2" value="&lt;div style=&quot;border-color: var(--border-color); font-size: 15px;&quot;&gt;&lt;div style=&quot;border-color: var(--border-color);&quot;&gt;&lt;div style=&quot;border-color: var(--border-color); font-size: 16px;&quot;&gt;&lt;font style=&quot;border-color: var(--border-color);&quot; face=&quot;Times New Roman&quot;&gt;Fetch data from Database&lt;/font&gt;&lt;/div&gt;&lt;div style=&quot;border-color: var(--border-color); font-size: 16px;&quot;&gt;&lt;font style=&quot;border-color: var(--border-color);&quot; face=&quot;Times New Roman&quot;&gt;based on FlowName and&amp;nbsp;&lt;/font&gt;&lt;/div&gt;&lt;div style=&quot;border-color: var(--border-color); font-size: 16px;&quot;&gt;&lt;font style=&quot;border-color: var(--border-color);&quot; face=&quot;Times New Roman&quot;&gt;Empid in approver&lt;/font&gt;&lt;/div&gt;&lt;/div&gt;&lt;/div&gt;" style="rounded=0;whiteSpace=wrap;html=1;" parent="1" vertex="1">
          <mxGeometry x="100" y="630" width="210" height="80" as="geometry" />
        </mxCell>
        <mxCell id="ktdjPjqdR2QkIswQw86U-8" value="No" style="text;html=1;align=center;verticalAlign=middle;resizable=0;points=[];autosize=1;strokeColor=none;fillColor=none;" parent="1" vertex="1">
          <mxGeometry x="520" y="390" width="40" height="30" as="geometry" />
        </mxCell>
        <mxCell id="ktdjPjqdR2QkIswQw86U-18" value="" style="edgeStyle=orthogonalEdgeStyle;rounded=0;orthogonalLoop=1;jettySize=auto;html=1;" parent="1" source="ktdjPjqdR2QkIswQw86U-11" target="Py34A5tgBrLusEjh5_gq-3" edge="1">
          <mxGeometry relative="1" as="geometry" />
        </mxCell>
        <mxCell id="ktdjPjqdR2QkIswQw86U-11" value="&lt;div style=&quot;border-color: var(--border-color); font-size: 15px;&quot;&gt;&lt;div style=&quot;border-color: var(--border-color);&quot;&gt;&lt;font face=&quot;Times New Roman&quot; style=&quot;border-color: var(--border-color); font-size: 15px;&quot;&gt;Fetch data from Database&lt;/font&gt;&lt;/div&gt;&lt;div style=&quot;border-color: var(--border-color);&quot;&gt;&lt;font style=&quot;font-size: 15px;&quot;&gt;&lt;font face=&quot;n8SxhLNMNW8hek5Bd0pW&quot; style=&quot;font-size: 15px;&quot;&gt;based on FlowName , Status and&lt;/font&gt;&lt;/font&gt;&lt;/div&gt;&lt;div style=&quot;border-color: var(--border-color);&quot;&gt;&lt;font style=&quot;font-size: 15px;&quot; face=&quot;n8SxhLNMNW8hek5Bd0pW&quot;&gt;Empid in approver&lt;/font&gt;&lt;font face=&quot;xHIgz2XPIEbc-YvHRtvs&quot; style=&quot;font-size: 15px;&quot;&gt;&lt;font style=&quot;font-size: 15px;&quot;&gt;&lt;br&gt;&lt;/font&gt;&lt;/font&gt;&lt;/div&gt;&lt;/div&gt;" style="rounded=0;whiteSpace=wrap;html=1;" parent="1" vertex="1">
          <mxGeometry x="580" y="630" width="200" height="80" as="geometry" />
        </mxCell>
        <mxCell id="ktdjPjqdR2QkIswQw86U-14" value="Yes" style="text;html=1;align=center;verticalAlign=middle;resizable=0;points=[];autosize=1;strokeColor=none;fillColor=none;" parent="1" vertex="1">
          <mxGeometry x="550" y="510" width="40" height="30" as="geometry" />
        </mxCell>
        <mxCell id="7eBVI3LawO5j0G0yM6X--4" value="" style="endArrow=none;html=1;rounded=0;" parent="1" target="lfvt54emDJ42RaypE45g-19" edge="1">
          <mxGeometry width="50" height="50" relative="1" as="geometry">
            <mxPoint x="790" y="420" as="sourcePoint" />
            <mxPoint x="570" y="260" as="targetPoint" />
          </mxGeometry>
        </mxCell>
        <mxCell id="7eBVI3LawO5j0G0yM6X--7" value="" style="endArrow=classic;html=1;rounded=0;exitX=0.429;exitY=1.01;exitDx=0;exitDy=0;exitPerimeter=0;entryX=0.461;entryY=-0.067;entryDx=0;entryDy=0;entryPerimeter=0;" parent="1" source="Py34A5tgBrLusEjh5_gq-2" target="lfvt54emDJ42RaypE45g-38" edge="1">
          <mxGeometry width="50" height="50" relative="1" as="geometry">
            <mxPoint x="520" y="710" as="sourcePoint" />
            <mxPoint x="570" y="660" as="targetPoint" />
            <Array as="points">
              <mxPoint x="190" y="800" />
              <mxPoint x="423" y="800" />
            </Array>
          </mxGeometry>
        </mxCell>
        <mxCell id="7eBVI3LawO5j0G0yM6X--8" value="" style="endArrow=classic;html=1;rounded=0;exitX=0.5;exitY=1;exitDx=0;exitDy=0;entryX=0.461;entryY=-0.033;entryDx=0;entryDy=0;entryPerimeter=0;" parent="1" source="ktdjPjqdR2QkIswQw86U-11" target="lfvt54emDJ42RaypE45g-38" edge="1">
          <mxGeometry width="50" height="50" relative="1" as="geometry">
            <mxPoint x="703.5" y="720" as="sourcePoint" />
            <mxPoint x="438" y="829" as="targetPoint" />
            <Array as="points">
              <mxPoint x="680" y="760" />
              <mxPoint x="680" y="800" />
              <mxPoint x="423" y="800" />
            </Array>
          </mxGeometry>
        </mxCell>
      </root>
    </mxGraphModel>
  </diagram>
</mxfile>
